<?xml version="1.0" encoding="utf-8"?>
<!-- Generator: Adobe Illustrator 21.0.0, SVG Export Plug-In . SVG Version: 6.00 Build 0)  -->
<svg version="1.1" id="Ebene_1" xmlns="http://www.w3.org/2000/svg" xmlns:xlink="http://www.w3.org/1999/xlink" x="0px" y="0px"
	 viewBox="0 0 100 100" style="enable-background:new 0 0 100 100;" xml:space="preserve">
<path d="M47.5,35.5c-5.4-4-11.3-7.4-17.6-10c6-7,9.6-16.1,9.6-26l-20,0v0c0,11-9,20-20,20v20c12.3,0,23.7,3.7,33.2,10
	c-9.5,6.3-20.9,10-33.2,10v20l0,0l0,0c11,0,20,9,20,20h20c0-9.9-3.6-19-9.6-26c6.3-2.6,12.2-6,17.6-10c7.5,10,12,22.5,12,36h20
	c0-18.9-6.6-36.3-17.6-50c11-13.7,17.6-31.1,17.6-50l-20,0v0C59.5,13,55,25.5,47.5,35.5z"/>
</svg>
